<?xml version="1.0" encoding="UTF-8" standalone="no"?>
<!-- Created with Inkscape (http://www.inkscape.org/) -->

<svg
   xmlns:dc="http://purl.org/dc/elements/1.1/"
   xmlns:cc="http://creativecommons.org/ns#"
   xmlns:rdf="http://www.w3.org/1999/02/22-rdf-syntax-ns#"
   xmlns:svg="http://www.w3.org/2000/svg"
   xmlns="http://www.w3.org/2000/svg"
   xmlns:sodipodi="http://sodipodi.sourceforge.net/DTD/sodipodi-0.dtd"
   xmlns:inkscape="http://www.inkscape.org/namespaces/inkscape"
   inkscape:version="0.48.4 r9939"
   version="1.1"
   id="svg4354"
   height="1052.3622047"
   width="744.09448819"
   sodipodi:docname="fighter 3.svg">
  <defs
     id="defs4356" />
  <sodipodi:namedview
     id="base"
     pagecolor="#ffffff"
     bordercolor="#666666"
     borderopacity="1.0"
     inkscape:pageopacity="0.0"
     inkscape:pageshadow="2"
     inkscape:zoom="15.839192"
     inkscape:cx="34.743182"
     inkscape:cy="1029.8719"
     inkscape:document-units="px"
     inkscape:current-layer="layer1"
     showgrid="true"
     inkscape:window-width="1920"
     inkscape:window-height="1018"
     inkscape:window-x="1592"
     inkscape:window-y="-8"
     inkscape:window-maximized="1"
     inkscape:snap-grids="true"
     inkscape:snap-global="true">
    <inkscape:grid
       type="xygrid"
       id="grid4411" />
  </sodipodi:namedview>
  <metadata
     id="metadata4359">
    <rdf:RDF>
      <cc:Work
         rdf:about="">
        <dc:format>image/svg+xml</dc:format>
        <dc:type
           rdf:resource="http://purl.org/dc/dcmitype/StillImage" />
        <dc:title />
      </cc:Work>
    </rdf:RDF>
  </metadata>
  <g
     inkscape:label="Layer 1"
     inkscape:groupmode="layer"
     id="layer1">
    <path
       style="fill:#7f7f7f;fill-opacity:1;stroke:#555555;stroke-width:4;stroke-linecap:butt;stroke-linejoin:round;stroke-miterlimit:4;stroke-opacity:1;stroke-dasharray:none"
       d="m 33,3.3621822 c -21,0 -31,14.0000008 -31,29.0000008 3,-7 16,-8 18,-7 2,1 4,17 6,17 2,0 4,-12 5,-15 1,-3 2,-4 6,-4 4,0 5,1 6,4 1,3 3,15 5,15 2,0 4,-16 6,-17 2,-1 15,0 18,7 0,-15 -10,-29.0000008 -31,-29.0000008 -1,0 -7,0 -8,0 z"
       id="path4409"
       inkscape:connector-curvature="0"
       sodipodi:nodetypes="cczszzzzzccc" />
    <path
       sodipodi:nodetypes="ccccc"
       inkscape:connector-curvature="0"
       id="path3787"
       d="m 30,11.359183 c 0,2 -1,8 -3,9 -2,-1 -3,-7 -3,-9 0,-1 1,-3.0000007 3,-3.0000007 2,0 3,2.0000007 3,3.0000007 z"
       style="fill:#294192;fill-opacity:1;stroke:#294192;stroke-width:2px;stroke-linecap:butt;stroke-linejoin:round;stroke-opacity:1" />
    <path
       sodipodi:nodetypes="ccccc"
       inkscape:connector-curvature="0"
       id="path3787-17"
       d="m 50,11.362182 c 0,2.000001 -1,8.000001 -3,9.000001 -2,-1 -3,-7 -3,-9.000001 0,-1 1,-3.0000002 3,-3.0000002 2,0 3,2.0000002 3,3.0000002 z"
       style="fill:#294192;fill-opacity:1;stroke:#294192;stroke-width:2px;stroke-linecap:butt;stroke-linejoin:round;stroke-opacity:1" />
  </g>
</svg>
