<?xml version="1.0" encoding="UTF-8" standalone="no"?>
<!-- Created with Inkscape (http://www.inkscape.org/) -->

<svg
   xmlns:dc="http://purl.org/dc/elements/1.1/"
   xmlns:cc="http://creativecommons.org/ns#"
   xmlns:rdf="http://www.w3.org/1999/02/22-rdf-syntax-ns#"
   xmlns:svg="http://www.w3.org/2000/svg"
   xmlns="http://www.w3.org/2000/svg"
   xmlns:sodipodi="http://sodipodi.sourceforge.net/DTD/sodipodi-0.dtd"
   xmlns:inkscape="http://www.inkscape.org/namespaces/inkscape"
   sodipodi:docname="fighter 2.svg"
   inkscape:version="0.48.4 r9939"
   version="1.1"
   id="svg2"
   height="1052.3622047"
   width="744.09448819">
  <defs
     id="defs4" />
  <sodipodi:namedview
     id="base"
     pagecolor="#ffffff"
     bordercolor="#666666"
     borderopacity="1.0"
     inkscape:pageopacity="0.0"
     inkscape:pageshadow="2"
     inkscape:zoom="4.0199021"
     inkscape:cx="74.772391"
     inkscape:cy="998.06066"
     inkscape:document-units="px"
     inkscape:current-layer="g3828"
     showgrid="true"
     inkscape:window-width="1366"
     inkscape:window-height="706"
     inkscape:window-x="-8"
     inkscape:window-y="-8"
     inkscape:window-maximized="1">
    <inkscape:grid
       type="xygrid"
       id="grid2996" />
  </sodipodi:namedview>
  <metadata
     id="metadata7">
    <rdf:RDF>
      <cc:Work
         rdf:about="">
        <dc:format>image/svg+xml</dc:format>
        <dc:type
           rdf:resource="http://purl.org/dc/dcmitype/StillImage" />
        <dc:title />
      </cc:Work>
    </rdf:RDF>
  </metadata>
  <g
     inkscape:groupmode="layer"
     id="layer2"
     inkscape:label="Layer"
     style="opacity:1">
    <g
       id="g3828">
      <path
         sodipodi:nodetypes="ccccccccccccccccc"
         inkscape:connector-curvature="0"
         id="path2998"
         d="m 5,43.362183 c -2,-2 -2,-14 -2,-18 0,-2 4,-5 8,-7 4,-2 6.5,-2.000054 11,-2.999994 4,0 14,0 18,0 3.5,0.99994 8,0.999994 12,2.999994 4,2 8,5 8,7 0,4 0,16 -2,18 l -6,-5.999994 c -4,0 -10,4 -12,6 -4,4 -5,19.999994 -6,24.999994 -1,4 -2,16 -3,19 l 0,0 c -1,-3 -2,-15 -3,-19 -1,-5 -2,-20.999994 -6,-24.999994 -2,-2 -8,-6 -12,-6 l -5,5.999994"
         style="fill:#7f7f7f;fill-opacity:1;stroke:#555555;stroke-width:6px;stroke-linecap:butt;stroke-linejoin:round;stroke-opacity:1" />
      <path
         sodipodi:nodetypes="ccccc"
         inkscape:connector-curvature="0"
         id="path3787"
         d="m 28,28.362183 c 0,2 -1,8 -3,9 -2,-1 -3,-7 -3,-9 0,-1 1,-3 3,-3 2,0 3,2 3,3 z"
         style="fill:#294192;fill-opacity:1;stroke:#294192;stroke-width:2px;stroke-linecap:butt;stroke-linejoin:round;stroke-opacity:1" />
      <path
         sodipodi:nodetypes="ccccc"
         inkscape:connector-curvature="0"
         id="path3787-17"
         d="m 40,28.362183 c 0,2 -1,8 -3,9 -2,-1 -3,-7 -3,-9 0,-1 1,-3 3,-3 2,0 3,2 3,3 z"
         style="fill:#294192;fill-opacity:1;stroke:#294192;stroke-width:2px;stroke-linecap:butt;stroke-linejoin:round;stroke-opacity:1" />
    </g>
  </g>
</svg>
