<?xml version="1.0" encoding="UTF-8" standalone="no"?>
<!-- Created with Inkscape (http://www.inkscape.org/) -->

<svg
   xmlns:dc="http://purl.org/dc/elements/1.1/"
   xmlns:cc="http://creativecommons.org/ns#"
   xmlns:rdf="http://www.w3.org/1999/02/22-rdf-syntax-ns#"
   xmlns:svg="http://www.w3.org/2000/svg"
   xmlns="http://www.w3.org/2000/svg"
   xmlns:sodipodi="http://sodipodi.sourceforge.net/DTD/sodipodi-0.dtd"
   xmlns:inkscape="http://www.inkscape.org/namespaces/inkscape"
   width="744.09448819"
   height="1052.3622047"
   id="svg2"
   version="1.1"
   inkscape:version="0.48.4 r9939"
   sodipodi:docname="fighter 1.svg">
  <defs
     id="defs4" />
  <sodipodi:namedview
     id="base"
     pagecolor="#ffffff"
     bordercolor="#666666"
     borderopacity="1.0"
     inkscape:pageopacity="0.0"
     inkscape:pageshadow="2"
     inkscape:zoom="1.4"
     inkscape:cx="125.17424"
     inkscape:cy="926.66156"
     inkscape:document-units="px"
     inkscape:current-layer="g3789"
     showgrid="false"
     inkscape:window-width="1366"
     inkscape:window-height="706"
     inkscape:window-x="-8"
     inkscape:window-y="-8"
     inkscape:window-maximized="1">
    <inkscape:grid
       type="xygrid"
       id="grid2985" />
  </sodipodi:namedview>
  <metadata
     id="metadata7">
    <rdf:RDF>
      <cc:Work
         rdf:about="">
        <dc:format>image/svg+xml</dc:format>
        <dc:type
           rdf:resource="http://purl.org/dc/dcmitype/StillImage" />
        <dc:title />
      </cc:Work>
    </rdf:RDF>
  </metadata>
  <g
     inkscape:groupmode="layer"
     id="layer2"
     inkscape:label="Layer"
     style="display:inline">
    <g
       id="g3789"
       transform="matrix(6,0,0,6,-714,155.18908)">
      <path
         sodipodi:nodetypes="ccccccccccccc"
         inkscape:connector-curvature="0"
         id="path2999"
         d="m 134.58333,-20.237816 c -1,1.250001 -1.5,3 -2,4.5 -0.5,1.5 -0.5,5.5 -1.5,7.4999998 -0.5,1 -3,2 -3,3 0,0.5 0,2.5 0,3 0.5,1 3.5,2.49999997 4.5,2.99999997 l 4.5,0 c 1,-0.5 4,-1.99999997 4.5,-2.99999997 l 0,-3 c 0,-1 -2.5,-2 -3,-3 -1,-1.9999998 -1,-5.9999998 -1.5,-7.4999998 -0.5,-1.5 -1,-3.249999 -2,-4.5 -0.5,0 0,0 -0.5,0 z"
         style="fill:#7f7f7f;fill-opacity:1;stroke:#555555;stroke-width:1.5;stroke-linecap:butt;stroke-linejoin:round;stroke-miterlimit:4;stroke-opacity:1;stroke-dasharray:none;display:inline" />
      <path
         sodipodi:nodetypes="ccccc"
         inkscape:connector-curvature="0"
         id="path3019"
         d="m 134.08333,-13.237816 c 0,-1 1.5,-1 1.5,0 0,0.5 0,1 -0.5,2 -0.0833,0.08333 -0.41667,0.08333 -0.5,0 -0.5,-1 -0.5,-1.5 -0.5,-2 z"
         style="fill:#294292;fill-opacity:1;stroke:#294292;stroke-width:0.75;stroke-linecap:round;stroke-linejoin:round;stroke-miterlimit:4;stroke-opacity:1;stroke-dasharray:none" />
      <path
         style="fill:none;stroke:#555555;stroke-width:0.66666669;stroke-linecap:round;stroke-linejoin:miter;stroke-miterlimit:4;stroke-opacity:1;stroke-dasharray:none"
         d="m 131.5,-0.47114956 c 0.83333,-1.66666664 0.83333,-5.00000004 0,-7.50000004"
         id="path3799"
         inkscape:connector-curvature="0"
         sodipodi:nodetypes="cc" />
      <path
         style="fill:none;stroke:#555555;stroke-width:0.66666669;stroke-linecap:round;stroke-linejoin:miter;stroke-miterlimit:4;stroke-opacity:1;stroke-dasharray:none;display:inline"
         d="m 138.16667,-0.47114956 c -0.83334,-1.66666664 -0.83334,-5.00000004 0,-7.50000004"
         id="path3799-7"
         inkscape:connector-curvature="0"
         sodipodi:nodetypes="cc" />
    </g>
  </g>
</svg>
