<?xml version="1.0" encoding="UTF-8" standalone="no"?>
<!-- Created with Inkscape (http://www.inkscape.org/) -->

<svg
   xmlns:dc="http://purl.org/dc/elements/1.1/"
   xmlns:cc="http://creativecommons.org/ns#"
   xmlns:rdf="http://www.w3.org/1999/02/22-rdf-syntax-ns#"
   xmlns:svg="http://www.w3.org/2000/svg"
   xmlns="http://www.w3.org/2000/svg"
   xmlns:sodipodi="http://sodipodi.sourceforge.net/DTD/sodipodi-0.dtd"
   xmlns:inkscape="http://www.inkscape.org/namespaces/inkscape"
   width="210mm"
   height="297mm"
   viewBox="0 0 744.09448819 1052.3622047"
   id="svg2"
   version="1.1"
   inkscape:version="0.91 r13725"
   sodipodi:docname="catalyzer organelle.svg">
  <defs
     id="defs4" />
  <sodipodi:namedview
     id="base"
     pagecolor="#ffffff"
     bordercolor="#666666"
     borderopacity="1.0"
     inkscape:pageopacity="0.0"
     inkscape:pageshadow="2"
     inkscape:zoom="15.839192"
     inkscape:cx="200.83614"
     inkscape:cy="996.56937"
     inkscape:document-units="px"
     inkscape:current-layer="layer1"
     showgrid="true"
     inkscape:snap-others="true"
     inkscape:snap-object-midpoints="false"
     inkscape:snap-bbox="false"
     inkscape:snap-bbox-midpoints="true"
     inkscape:bbox-nodes="true"
     inkscape:bbox-paths="false"
     inkscape:snap-global="false"
     inkscape:object-nodes="true"
     inkscape:window-width="1920"
     inkscape:window-height="1018"
     inkscape:window-x="-8"
     inkscape:window-y="-8"
     inkscape:window-maximized="1">
    <inkscape:grid
       type="xygrid"
       id="grid4136" />
  </sodipodi:namedview>
  <metadata
     id="metadata7">
    <rdf:RDF>
      <cc:Work
         rdf:about="">
        <dc:format>image/svg+xml</dc:format>
        <dc:type
           rdf:resource="http://purl.org/dc/dcmitype/StillImage" />
        <dc:title></dc:title>
      </cc:Work>
    </rdf:RDF>
  </metadata>
  <g
     inkscape:label="Layer 1"
     inkscape:groupmode="layer"
     id="layer1">
    <path
       style="fill:#282828;fill-rule:evenodd;stroke:#000000;stroke-width:1px;stroke-linecap:butt;stroke-linejoin:round;stroke-opacity:1;fill-opacity:1"
       d="m 210,72.362205 c 5,-5 10,-25 0,-25 -10,0 -5,20 0,25 z"
       id="path4138"
       inkscape:connector-curvature="0"
       sodipodi:nodetypes="ccc"
       inkscape:export-xdpi="171.56"
       inkscape:export-ydpi="171.56" />
    <path
       style="fill:none;fill-rule:evenodd;stroke:#000000;stroke-width:1px;stroke-linecap:butt;stroke-linejoin:round;stroke-opacity:1"
       d="m 210,47.362205 c 0,-2 3,-5 5,-5 l 5,0"
       id="path4140"
       inkscape:connector-curvature="0"
       sodipodi:nodetypes="ccc"
       inkscape:export-xdpi="171.56"
       inkscape:export-ydpi="171.56" />
    <path
       style="fill:none;fill-rule:evenodd;stroke:#000000;stroke-width:1px;stroke-linecap:butt;stroke-linejoin:round;stroke-opacity:1"
       d="m 210,47.362205 c 0,-2 -3,-5 -5,-5 l -6,0"
       id="path4140-9"
       inkscape:connector-curvature="0"
       sodipodi:nodetypes="ccc"
       inkscape:export-xdpi="171.56"
       inkscape:export-ydpi="171.56" />
    <path
       sodipodi:type="spiral"
       style="fill:none;fill-rule:evenodd;stroke:#000000;stroke-width:1px;stroke-linecap:round;stroke-linejoin:miter;stroke-opacity:1"
       id="path4157"
       sodipodi:cx="197.39413"
       sodipodi:cy="55.382946"
       sodipodi:expansion="1"
       sodipodi:revolution="1.9757179"
       sodipodi:radius="6.0511484"
       sodipodi:argument="-13.884305"
       sodipodi:t0="0"
       d="m 197.39413,55.382946 c 0.11526,-0.446036 0.65811,-0.0647 0.74135,0.191557 0.22555,0.694442 -0.50284,1.256711 -1.12446,1.291125 -1.11192,0.06156 -1.88616,-1.023947 -1.84091,-2.057353 0.0664,-1.516565 1.54986,-2.527989 2.99025,-2.390694 1.91982,0.182993 3.17472,2.077177 2.94048,3.923151 -0.29477,2.322969 -2.60509,3.82391 -4.85605,3.490261 -2.72621,-0.404094 -4.47451,-3.133334 -4.04004,-5.788947 0.45395,-2.774734 3.02554,-4.734996 5.79526,-4.679841"
       inkscape:export-xdpi="171.56"
       inkscape:export-ydpi="171.56" />
    <path
       style="fill:none;fill-rule:evenodd;stroke:#000000;stroke-width:1px;stroke-linecap:square;stroke-linejoin:round;stroke-opacity:1"
       d="m 198,49.362205 c 1.98985,0.02031 5,2 6,3"
       id="path4159"
       inkscape:connector-curvature="0"
       sodipodi:nodetypes="cc"
       inkscape:export-xdpi="171.56"
       inkscape:export-ydpi="171.56" />
    <path
       sodipodi:type="spiral"
       style="fill:none;fill-rule:nonzero;stroke:#000000;stroke-width:1px;stroke-linecap:round;stroke-linejoin:miter;stroke-opacity:1;fill-opacity:1"
       id="path4157-3"
       sodipodi:cx="-222.60587"
       sodipodi:cy="55.382946"
       sodipodi:expansion="1"
       sodipodi:revolution="1.9757179"
       sodipodi:radius="6.0511484"
       sodipodi:argument="-13.884305"
       sodipodi:t0="0"
       d="m -222.60587,55.382946 c 0.11526,-0.446036 0.65811,-0.0647 0.74135,0.191557 0.22555,0.694442 -0.50284,1.256711 -1.12446,1.291125 -1.11192,0.06156 -1.88616,-1.023947 -1.84091,-2.057353 0.0664,-1.516565 1.54986,-2.527989 2.99025,-2.390694 1.91982,0.182993 3.17472,2.077177 2.94048,3.923151 -0.29477,2.322969 -2.60509,3.82391 -4.85605,3.490261 -2.72621,-0.404094 -4.47451,-3.133334 -4.04004,-5.788947 0.45395,-2.774734 3.02554,-4.734996 5.79526,-4.679841"
       transform="scale(-1,1)"
       inkscape:export-xdpi="171.56"
       inkscape:export-ydpi="171.56" />
    <path
       style="fill:#282828;fill-rule:evenodd;stroke:#000000;stroke-width:1px;stroke-linecap:square;stroke-linejoin:round;stroke-opacity:1;fill-opacity:1"
       d="m 222,49.362205 c -1.98985,0.02031 -5,2 -6,3"
       id="path4159-4"
       inkscape:connector-curvature="0"
       sodipodi:nodetypes="cc"
       inkscape:export-xdpi="171.56"
       inkscape:export-ydpi="171.56" />
    <path
       sodipodi:type="spiral"
       style="opacity:0.66500005;fill:none;fill-rule:evenodd;stroke:#000000;stroke-width:0.40000001;stroke-linecap:round;stroke-linejoin:miter;stroke-miterlimit:4;stroke-dasharray:none;stroke-opacity:1"
       id="path4273"
       sodipodi:cx="222.67551"
       sodipodi:cy="68.347351"
       sodipodi:expansion="1"
       sodipodi:revolution="1.9168651"
       sodipodi:radius="3.1237612"
       sodipodi:argument="-15.181593"
       sodipodi:t0="0.11203499"
       d="m 222.78058,68.013525 c 0.34238,-0.118369 0.60986,0.261018 0.61736,0.561207 0.0141,0.562557 -0.55455,0.928201 -1.07213,0.883667 -0.77423,-0.06662 -1.25411,-0.851549 -1.14996,-1.583053 0.14028,-0.985283 1.14957,-1.582903 2.09397,-1.416265 1.19639,0.211099 1.9131,1.448015 1.68257,2.604899 -0.2805,1.407609 -1.74669,2.244086 -3.11582,1.948864 -1.26442,-0.272643 -2.18403,-1.402273 -2.2848,-2.678045"
       transform="matrix(1.4074318,0,0,1.492886,-96.623386,-32.559021)"
       inkscape:export-xdpi="171.56"
       inkscape:export-ydpi="171.56" />
    <path
       sodipodi:type="spiral"
       style="opacity:0.66500005;fill:none;fill-rule:evenodd;stroke:#000000;stroke-width:0.40000001;stroke-linecap:round;stroke-linejoin:miter;stroke-miterlimit:4;stroke-dasharray:none;stroke-opacity:1"
       id="path4273-0"
       sodipodi:cx="222.67551"
       sodipodi:cy="68.347351"
       sodipodi:expansion="1"
       sodipodi:revolution="1.9168651"
       sodipodi:radius="3.1237612"
       sodipodi:argument="-15.181593"
       sodipodi:t0="0.11203499"
       d="m 222.78058,68.013525 c 0.34238,-0.118369 0.60986,0.261018 0.61736,0.561207 0.0141,0.562557 -0.55455,0.928201 -1.07213,0.883667 -0.77423,-0.06662 -1.25411,-0.851549 -1.14996,-1.583053 0.14028,-0.985283 1.14957,-1.582903 2.09397,-1.416265 1.19639,0.211099 1.9131,1.448015 1.68257,2.604899 -0.2805,1.407609 -1.74669,2.244086 -3.11582,1.948864 -1.26442,-0.272643 -2.18403,-1.402273 -2.2848,-2.678045"
       transform="matrix(-1.4074318,0,0,1.492886,516.56288,-32.537897)"
       inkscape:export-xdpi="171.56"
       inkscape:export-ydpi="171.56" />
  </g>
</svg>
